<svg xmlns="http://www.w3.org/2000/svg" width="50" height="50" viewBox="0 0 50 50"><path d="M26.14 7.084c0 .51-.415.926-.924.926-.512 0-.926-.417-.926-.926V1.727c0-.513.414-.927.926-.927.51 0 .923.414.923.927v5.357zM16.215 3.87c-.253-.438-.82-.593-1.263-.337-.442.256-.593.82-.337 1.263l2.68 4.64c.257.445.822.595 1.264.34.44-.253.593-.82.337-1.26l-2.68-4.646zm-7.52 6.825c-.442-.256-1.006-.105-1.26.336-.255.443-.104 1.01.338 1.265l4.638 2.677c.446.26 1.01.105 1.264-.337.256-.44.104-1.007-.337-1.263l-4.643-2.677zm-3.1 9.666c-.51 0-.924.412-.924.923 0 .512.414.927.923.927h5.36c.51 0 .924-.415.924-.927s-.415-.922-.924-.922h-5.36zM31.102 8.517c-.252.44-.102 1.007.34 1.26.443.255 1.008.105 1.26-.34l2.68-4.64c.257-.44.106-1.006-.336-1.263-.442-.256-1.007-.102-1.263.337l-2.68 4.646zm5.558 4.856c-.44.256-.59.822-.335 1.263.255.442.82.597 1.263.337l4.642-2.677c.438-.256.59-.82.337-1.264-.256-.44-.82-.592-1.263-.335l-4.643 2.677zm2.387 6.99c-.512 0-.926.41-.926.92 0 .513.415.928.927.928h5.358c.512 0 .923-.415.923-.927s-.41-.922-.923-.922h-5.358zM21.142 34.575h8.102s1.182-.776 1.305-1.144c.575-1.674 1.515-3.018 2.273-4.098 1.873-2.67 2.824-5.078 2.824-7.148 0-5.758-4.685-10.44-10.442-10.44s-10.442 4.683-10.442 10.44c0 2.07.95 4.478 2.828 7.148.76 1.08 1.696 2.424 2.27 4.098.127.368.324 1.144 1.31 1.144h8.1-8.128zm-.35 1.115c-.334 0-.636.145-.853.373-.222.23-.355.547-.355.902 0 .288.09.555.246.77.155.212.626.482.626 1.247s-.47 1.035-.625 1.25c-.153.214-.245.48-.245.772 0 .287.09.554.246.768.155.214.626.58.626 1.25 0 .673-.47 1.034-.625 1.25-.153.213-.245.48-.245.77 0 .295.094.565.256.783.176.238.71.804.822.99.095.157.414.434 1.485.733.326.102.72.207 1.182.284.392.066.592.242.72.565.06.162.157.31.272.428.22.23.526.375.863.375.333 0 .64-.144.863-.375.113-.12.208-.267.27-.428.126-.323.327-.5.72-.565.466-.077.856-.182 1.182-.284 1.07-.3 1.39-.576 1.488-.734.112-.186.642-.75.82-.99.163-.217.253-.487.253-.782 0-.29-.09-.558-.244-.77-.155-.215-.625-.577-.625-1.25 0-.67.472-1.036.626-1.25.154-.214.245-.48.245-.768 0-.292-.09-.558-.244-.772-.155-.214-.625-.484-.625-1.25s.472-1.035.626-1.246c.154-.217.245-.484.245-.77 0-.355-.132-.67-.35-.903-.217-.228-.52-.372-.855-.372H20.79zm4.648 3.33c0 .444-.354.8-.796.8h-2.72c-.442 0-.8-.356-.8-.8 0-.437.358-.795.8-.795h2.72c.442 0 .796.358.796.796zm0 4.215c0 .44-.354.796-.796.796h-2.72c-.442 0-.8-.356-.8-.795 0-.44.358-.8.8-.8h2.72c.442 0 .796.358.796.8z" fill="#000100"/></svg>