<svg xmlns="http://www.w3.org/2000/svg" xmlns:xlink="http://www.w3.org/1999/xlink" width="50" height="50" viewBox="0 0 50 50"><path d="M41.007 13.75c-.127 0-.34.046-.378-.056 2.7-.138 3.71-.86 3.462-1.045-.345-.26-.955-.31-1.063-.82-.23-1.073.215-2.097-.184-3.186-.557-1.52-1.683-2.042-3.17-2.266-.843-.127-1.76.542-2.66.48-.194-.014-.346-.088-.463-.19-.197.11-.398.214-.612.286-.935.314-1.916.428-2.854.752-2.06.71-2.546 1.845-2.226 3.733.05.308-.167.593-.125.872.04.265-.005.504-.17.687.78.052.94 1.242.143 1.44l-.654.165c-.064.016-.123.022-.183.023-.11.08-.676.157-.952.22-.94.216-2.15.513-3.026.585-1.432.117-2.697-.114-3.878-.378-.672-.15-1.52-.32-2.083-.51l-.055.002c-.595.135-1.217-.678-.685-1.256l.31-.714c-.022-.097-.027-.2-.01-.31.057-.318.16-.694.248-1.083l-.108-.008.116-.035c.027-.122.052-.246.074-.37-.086 0-.17-.006-.247-.03.083-.01.168-.016.255-.02.083-.498.11-.987-.054-1.378-.24-.576-.65-.302-.993-.656-.885-.915-1.71-1.056-2.87-.972-.28.02-.668-.027-.91-.183-.38-.244-3.154-1.036-3.634-.817-1.126.517-2.066-.044-3.15.682-.057.166-.152.32-.29.425-.67.52-.66.798-.52 1.542.013.07.014.137.013.202.49.04.79.696.526 1.1-.238.366-.527.588-.818.816.064.438-.29.98-.867.916-.125.057.56 1.138 3.11 1.315-2.775.046-5.38.226-8.023.455.048.85.22 1.806.284 2.61.034.435.353.34.645.454 1.046.41 1.244 1.922 1.514 3.048.302 1.253.673 2.71 1.248 3.974.53 1.16 1.415 2.043 2.61 2.592 1.243.568 2.935.863 4.562 1.02 2.352.23 4.743-.267 6.15-1.096 2.04-1.2 3.235-3.22 4.218-5.47.235-.536.475-1.134.738-1.684.234-.488.522-1.068 1.23-1.154-.056.084.044.003.018.114.252-.058.682.055.87-.02.073-.028.046-.098.17-.075.48.085.873.68 1.136 1.247.252.54.508 1.122.74 1.665.47 1.12 1.026 2.178 1.7 3.103.645.886 1.473 1.73 2.48 2.31.505.29 1.094.48 1.74.66.622.176 1.302.345 2.005.398 1.755.135 3.525-.065 4.957-.397 2.204-.508 3.765-1.39 4.598-3.215.57-1.25.95-2.7 1.25-3.954.275-1.157.466-2.623 1.512-3.046.314-.127.61-.076.645-.492.066-.78.238-1.792.284-2.593-2.516-.208-4.973-.415-7.643-.415zM20.97 19.654c-.266 2-.957 3.574-1.968 4.767-.655.774-1.542 1.438-2.705 1.782-1.153.338-2.61.48-4.05.358-1.877-.16-3.946-.66-5.09-1.665-.4-.35-.648-.823-.87-1.362-.437-1.055-.72-2.207-.89-3.594-.194-1.575-.226-3.74.87-4.506.477-.333 1.153-.495 1.78-.605.683-.12 1.413-.132 2.25-.172 1.015-.05 2.226.042 3.18.152 1.942.225 3.832.6 5.394 1.23.785.316 1.805.79 2.063 1.55.206.612.123 1.418.037 2.064zm23.613.49c-.19 1.34-.48 2.522-.926 3.54-.23.52-.507.977-.928 1.305-1.192.93-3.255 1.427-5.128 1.57-1.44.11-2.924-.06-3.992-.398-1.14-.36-1.964-1.013-2.648-1.814-.96-1.123-1.716-2.804-1.95-4.75-.08-.682-.143-1.676.15-2.214.334-.61 1.224-1.04 1.875-1.305 1.506-.622 3.268-.993 5.128-1.213.95-.112 1.9-.156 2.988-.207.815-.04 1.777.04 2.46.133 1.266.173 2.31.464 2.744 1.437.468 1.052.4 2.707.226 3.915z"/><path d="M13.376 28.413c-.408 0-.816-.02-1.213-.06-2.015-.194-3.603-.55-4.717-1.06-1.308-.6-2.27-1.554-2.854-2.836-.587-1.292-.968-2.775-1.28-4.063-.035-.146-.068-.297-.103-.452-.21-.934-.444-1.99-1.113-2.253-.048-.02-.1-.027-.148-.037-.206-.04-.753-.146-.807-.838-.028-.355-.077-.74-.128-1.13-.063-.495-.13-1.006-.157-1.49l-.028-.478.476-.04c1.512-.132 3.227-.27 5.094-.36-.404-.29-.6-.59-.635-.79l-.067-.38.485-.253.132.014c.064.003.156.002.24-.094.063-.074.1-.18.086-.263l-.04-.28.225-.176c.29-.227.52-.41.708-.696.03-.045.023-.137-.016-.216-.036-.07-.09-.123-.138-.126l-.463-.037.01-.466-.004-.1c-.164-.88-.148-1.365.704-2.022.05-.04.095-.108.125-.195l.054-.158.138-.093c.708-.475 1.372-.49 1.958-.505.45-.01.84-.02 1.26-.213.123-.057.27-.083.466-.083.917 0 3.196.65 3.64.935.113.074.39.12.606.105 1.42-.102 2.363.193 3.26 1.12.04.042.08.054.212.086.242.06.646.16.882.723.153.367.172.777.147 1.14h.03l-.078.43h.017l-.127.566c-.01.05-.022.098-.034.146l-.03.123c-.01.05-.023.103-.035.152-.056.23-.108.446-.143.64l.004.12.033.155-.405.938-.057.062c-.05.055-.1.133-.05.255.053.117.166.19.24.19l.207-.04.14.048c.43.145 1.064.284 1.625.406l.408.09c1.128.252 2.364.48 3.73.368.75-.062 1.808-.308 2.656-.505l.3-.07c.094-.022.215-.045.342-.068.144-.026.377-.07.47-.098l.09-.064.152-.002.07-.008.658-.164c.042-.01.168-.042.15-.233 0-.023-.024-.228-.208-.24l-1.008-.07.675-.75c.02-.022.08-.088.05-.288-.037-.24.026-.452.077-.622.027-.09.058-.193.05-.24-.38-2.25.382-3.53 2.55-4.28.506-.174 1.02-.29 1.514-.402.47-.105.912-.205 1.345-.35.17-.058.336-.14.532-.25l.3-.166.258.224c.05.043.106.064.177.07.366.024.723-.1 1.126-.228.5-.162 1.038-.33 1.573-.246 1.286.194 2.855.663 3.557 2.583.258.704.213 1.382.173 1.98-.03.444-.056.863.03 1.27.018.086.118.144.39.265.156.07.332.146.487.265.198.15.278.4.206.637-.05.163-.177.316-.374.456 1.466.078 2.903.197 4.387.32l.564.047-.027.48c-.027.47-.095 1-.16 1.514-.05.385-.097.76-.125 1.093-.056.657-.546.79-.783.854-.053.014-.11.03-.167.052-.676.272-.9 1.278-1.116 2.25-.034.155-.07.307-.104.454-.306 1.283-.697 2.767-1.28 4.044-.83 1.818-2.35 2.896-4.934 3.49-.89.207-2.296.453-3.935.453-.398 0-.79-.014-1.172-.043-.754-.056-1.485-.24-2.1-.414-.732-.206-1.328-.406-1.855-.71-.973-.56-1.858-1.384-2.63-2.445-.652-.893-1.228-1.94-1.758-3.2-.23-.54-.482-1.114-.73-1.648-.253-.542-.5-.824-.67-.928-.176.07-.39.07-.653.05-.132-.01-.294-.007-.296-.007l-.512.115c-.15.154-.27.38-.403.658-.174.368-.34.757-.5 1.134l-.228.535c-.9 2.06-2.13 4.346-4.42 5.695-1.3.764-3.255 1.22-5.236 1.22zM2.12 16.683l.017.004c.104.02.212.043.318.085 1.157.454 1.465 1.84 1.713 2.954.034.15.066.296.1.436.3 1.245.667 2.673 1.218 3.886.485 1.06 1.28 1.85 2.368 2.35 1.016.463 2.498.793 4.404.977 2.1.204 4.478-.22 5.852-1.03 2.05-1.21 3.182-3.328 4.02-5.243.074-.17.148-.346.225-.525.166-.39.337-.793.52-1.175.235-.49.628-1.31 1.614-1.43l1.045-.126-.098.15c.046-.01.09-.012.128-.012l.133.013c.565.103 1.068.615 1.492 1.525.254.544.512 1.13.745 1.68.503 1.192 1.04 2.174 1.647 3.006.69.95 1.474 1.68 2.327 2.172.438.254.966.43 1.626.615.597.167 1.243.33 1.91.38.356.027.725.04 1.097.04 1.546 0 2.873-.232 3.713-.426 2.288-.53 3.562-1.408 4.26-2.942.55-1.2.923-2.627 1.22-3.865l.1-.438c.245-1.106.55-2.483 1.707-2.95.096-.04.19-.066.28-.09l.06-.015c.032-.358.08-.73.127-1.105.042-.325.084-.656.115-.97-2.322-.192-4.542-.367-6.96-.374.175.02.35.04.52.063 1.303.18 2.585.512 3.124 1.725.567 1.28.408 3.173.263 4.187-.206 1.455-.52 2.654-.962 3.666-.188.432-.505 1.053-1.075 1.498-1.616 1.263-4.31 1.59-5.393 1.673-1.443.11-3.01-.05-4.177-.42-1.12-.35-2.032-.976-2.874-1.964-1.08-1.264-1.833-3.09-2.063-5.01-.14-1.176-.072-1.996.208-2.51.413-.756 1.407-1.23 2.12-1.523 1.425-.586 3.145-.995 5.256-1.245.946-.112 1.876-.156 2.952-.207l.073-.002c.412-.02.856-.012 1.333.017-.186-.088-.265-.24-.294-.32l-.234-.627.67-.034c1.32-.067 2.15-.27 2.618-.446-.283-.152-.582-.387-.675-.826-.115-.542-.08-1.05-.048-1.54.037-.55.072-1.068-.115-1.578-.426-1.165-1.207-1.712-2.782-1.95-.335-.05-.71.078-1.125.21-.472.153-.966.308-1.496.274-.157-.01-.308-.05-.448-.112-.138.068-.283.134-.44.185-.48.163-.97.272-1.44.38-.492.11-.956.214-1.41.372-1.724.595-2.204 1.4-1.9 3.187.044.27-.027.51-.08.684-.018.065-.048.164-.045.196.027.186.022.35-.003.492.28.204.467.528.5.913.054.605-.313 1.13-.892 1.274l-.655.163c-.055.014-.113.025-.174.03-.143.057-.342.097-.67.157-.112.02-.218.04-.298.058l-.297.07c-.927.214-1.977.46-2.798.526-.267.02-.54.033-.812.033-1.17 0-2.237-.203-3.215-.42l-.403-.09c-.543-.118-1.154-.25-1.623-.4-.518.066-1.054-.26-1.278-.77-.187-.426-.123-.886.167-1.247l.225-.52c-.01-.108-.005-.216.013-.323.03-.173.074-.36.12-.555l-1.25-.095.965-.503-1.585-.478 2.132-.284c.026-.317.003-.56-.07-.736-.044-.104-.044-.104-.208-.145-.176-.042-.443-.107-.686-.357-.823-.85-1.518-.892-2.482-.823-.05.004-.106.007-.163.007-.19 0-.678-.026-1.048-.267-.268-.16-2.33-.778-3.106-.778-.065 0-.09.006-.09.006-.57.264-1.124.278-1.612.29-.495.01-.894.018-1.317.262-.094.195-.224.358-.383.48-.45.347-.458.41-.352.985.22.116.404.306.525.552.194.394.177.85-.042 1.187-.224.347-.487.584-.737.785-.027.266-.14.528-.32.738-.055.062-.112.117-.174.167.405.24 1.126.516 2.28.597l-.027.982c-2.793.044-5.34.227-7.5.41.03.31.07.63.11.944.05.388.1.77.13 1.126zm37.484-1.543c-.145 0-.29.004-.428.01l-.073.003c-1.057.05-1.97.094-2.88.202-2.022.24-3.657.626-5 1.18-.885.362-1.434.727-1.628 1.084-.1.18-.244.67-.095 1.92.208 1.73.876 3.366 1.835 4.487.717.842 1.487 1.37 2.422 1.665 1.04.33 2.502.475 3.806.378 2.07-.157 3.887-.706 4.862-1.468.305-.238.546-.582.78-1.116.405-.928.696-2.043.89-3.41.105-.732.297-2.553-.19-3.648-.325-.73-1.144-.982-2.36-1.148-.64-.09-1.348-.14-1.94-.14zM13.276 27.095c-.358 0-.72-.016-1.07-.045-1.38-.117-3.915-.505-5.372-1.786-.5-.436-.776-1-1-1.543-.453-1.09-.746-2.274-.923-3.722-.316-2.574.046-4.246 1.077-4.967.578-.403 1.36-.578 1.976-.686.592-.104 1.215-.13 1.875-.16l.438-.018c1.125-.055 2.452.06 3.258.155 2.255.26 4.062.673 5.52 1.262.985.397 2.032.928 2.346 1.85.23.68.164 1.5.06 2.286-.27 2.02-.968 3.708-2.08 5.02-.798.943-1.788 1.594-2.942 1.936-.943.276-2.035.42-3.162.42zm-2.378-11.958c-.197 0-.39.004-.577.013l-.442.02c-.653.027-1.218.05-1.746.144-.518.09-1.164.232-1.583.524-.68.476-.922 1.948-.665 4.04.167 1.36.44 2.46.855 3.467.18.433.394.876.74 1.18.912.8 2.664 1.362 4.808 1.545 1.34.113 2.746-.012 3.87-.34.965-.285 1.796-.833 2.468-1.626.988-1.167 1.613-2.686 1.856-4.515.09-.67.15-1.354-.016-1.84-.21-.62-1.352-1.08-1.78-1.254-1.357-.548-3.13-.95-5.266-1.197-.637-.075-1.59-.163-2.522-.163z"/><defs><path id="a" d="M17.718 17.904h14.48V37.07h-14.48z"/></defs><clipPath id="b"><use xlink:href="#a" overflow="visible"/></clipPath><path d="M32.173 32.017c.04.147.02.275.02.417-.02.162-.054.31-.108.452-.04.073-.093.147-.148.216-.304.33-.667.51-1.05.727-.324.195-.634.343-.958.47-.493.418-.96.83-1.396 1.34-.633.69-1.52.98-2.37 1.248-.272.09-.78.153-.78.153-.154.02-.3.03-.44.03-.922 0-1.9-.437-1.9-.437s-1.19-.433-1.63-.977c-.43-.545-1.41-1.36-1.41-1.36s-1.09-.432-1.904-1.084c-.81-.654-.108-2.23.054-2.716.167-.49 1.36-2.39 1.577-2.716.222-.33 2.284-6.19 2.284-6.19l-.305-.325.368-.246s.898-3.153 2.784-3.114c0 0 2.387.482 3.035 3.698.044.21.133.402.22.604.055.182.13.36.183.56.107.27.2.545.31.815.014.088.053.162.073.255.108.27.196.54.304.81.397 1.09.74 2.156 1.213 3.207.452.634.834 1.306 1.232 1.994.107.195.2.377.29.58.127.304.215.612.324.937.04.128.06.275.093.402.02.084.02.158.033.247z" clip-path="url(#b)"/><path d="M21.71 21.264l.272.41.37-.246.15-.1.05-.175v-.004c.02-.07.248-.816.666-1.507.208-.345.46-.673.738-.898.278-.226.556-.347.87-.35l.025.002.01-.492-.096.482.027-.137-.028.136h.002l.027-.137-.028.135c.02.004.55.127 1.13.594.58.47 1.226 1.268 1.522 2.717v.005c.06.283.168.505.253.702l.45-.198-.47.14c.064.216.134.385.177.547l.007.027.012.027c.102.254.195.53.31.815l.457-.182-.486.082c.017.092.04.162.055.205l.022.07.01.043.015.04c.1.25.19.52.304.81l.458-.182-.46.168c.393 1.078.74 2.156 1.225 3.24l.02.043.028.04c.434.604.81 1.263 1.21 1.953l.425-.247-.432.236c.105.19.19.358.27.54l.452-.197-.455.19c.113.27.2.566.312.904l.466-.156-.47.145c.023.07.044.212.088.383l.476-.127-.48.107c.007.027.008.087.03.225l.003.023.006.023c.005.02.01.04.01.084 0 .044-.005.112-.006.207h.492l-.49-.06c-.014.13-.04.235-.08.338l.46.174-.432-.232c-.017.03-.054.086-.1.144l.386.305-.36-.334c-.23.25-.532.407-.933.63l-.007.005-.006.004c-.3.18-.58.313-.883.433l-.075.03-.062.054c-.496.42-.985.852-1.45 1.396l.374.32-.362-.334c-.516.566-1.306.843-2.16 1.11h-.005c-.084.03-.27.068-.42.092l-.192.03-.076.01h-.002c-.133.017-.26.026-.374.026-.385 0-.823-.096-1.154-.197-.166-.05-.306-.1-.403-.137-.05-.018-.086-.034-.11-.045l-.028-.01-.006-.004-.017-.007-.018-.007-.008-.004c-.055-.02-.342-.13-.652-.29-.308-.154-.64-.38-.753-.53v.002c-.252-.316-.613-.66-.92-.942-.307-.28-.556-.486-.56-.49l-.06-.05-.073-.03-.01-.003c-.1-.04-1.082-.455-1.77-1.01h.002c-.07-.056-.113-.117-.147-.207-.034-.09-.054-.21-.054-.354-.002-.262.067-.587.157-.88.09-.297.19-.55.253-.734.017-.054.12-.268.252-.506.4-.73 1.118-1.87 1.268-2.094v.002l.058-.1c.056-.114.12-.272.207-.49.595-1.505 2.072-5.708 2.074-5.713l.1-.283-.51-.542-.36.342.272.41-.273-.41-.36.337.305.326.36-.337-.465-.165-.326.92c-.294.83-.742 2.086-1.136 3.162-.197.538-.38 1.03-.524 1.4-.07.188-.133.34-.18.453l-.056.13-.015.03.22.127-.21-.143-.01.015.22.126-.21-.143v.002c-.12.176-.47.73-.82 1.315-.174.292-.35.59-.492.85-.143.265-.253.475-.32.666-.043.132-.16.42-.262.762-.104.343-.2.746-.2 1.166 0 .228.028.465.115.696.085.232.234.46.45.63h.002c.897.716 2.01 1.15 2.03 1.16l.182-.458-.315.378.04.034c.093.08.335.286.597.53.26.24.544.525.7.725h.002c.317.385.762.63 1.143.826.38.19.69.303.703.307l.167-.462-.2.45c.013.006.274.122.662.24.387.116.9.238 1.44.24.16 0 .327-.012.5-.034h-.003c.004 0 .138-.018.31-.046.173-.03.378-.068.563-.127h-.005c.848-.27 1.835-.574 2.584-1.38l.007-.008.005-.007c.41-.48.853-.87 1.34-1.285l-.32-.375.18.458c.347-.136.685-.298 1.033-.51l-.253-.42.242.43c.363-.21.79-.415 1.17-.822l.01-.014.012-.015c.063-.08.133-.173.196-.29l.015-.027.012-.03c.068-.183.112-.373.135-.566l.004-.03v-.03c0-.048.004-.114.004-.207 0-.092-.007-.21-.04-.337l-.476.126.485-.082c-.01-.04-.01-.125-.04-.275l-.003-.01-.003-.01c-.022-.084-.042-.237-.097-.42v-.006l-.004-.003c-.105-.312-.195-.633-.337-.974l-.002-.003v-.005c-.097-.218-.198-.415-.31-.618l-.002-.005-.002-.005c-.397-.686-.788-1.372-1.258-2.032l-.4.286.448-.2c-.457-1.02-.798-2.073-1.2-3.174l-.002-.007-.002-.008c-.102-.25-.19-.52-.305-.81l-.457.183.48-.102c-.017-.087-.04-.15-.054-.188l-.013-.04-.002-.007-.008-.05-.02-.05c-.1-.255-.194-.53-.308-.815l-.458.182.475-.128c-.065-.24-.14-.424-.185-.573l-.01-.028-.01-.028c-.093-.207-.163-.368-.192-.507l.003.005v.002c-.343-1.72-1.18-2.765-1.942-3.348-.76-.586-1.427-.726-1.477-.736l-.042-.008h-.089c-.607 0-1.128.26-1.532.603-.61.518-1.01 1.228-1.283 1.81-.27.582-.4 1.04-.406 1.057l.473.136-.273-.41-.368.246-.484.32.398.425.36-.34z"/><g><defs><path id="c" d="M16.37 35.72h17.08v7.915H16.37z"/></defs><clipPath id="d"><use xlink:href="#c" overflow="visible"/></clipPath><path d="M32.556 36.464s2.63 4.203-1.134 5.826c-3.763 1.626-5.785 1.323-6.867 1.323l.01-.008c-1.084 0-2.405.285-6.17-1.34-3.76-1.624-1.133-5.826-1.133-5.826.4-.494 1.006-.722 1.006-.722s4.407 3.583 6.754 3.608c2.345.025 6.53-3.583 6.53-3.583s1.056.413 1.004.72z" clip-path="url(#d)"/></g><path d="M31.55 35.744l-.178.458.008.003c.044.017.28.115.48.23.1.054.192.116.233.153l.02.02.12-.098-.14.064.02.034.12-.098-.14.064.29-.13h-.316c0 .06.015.105.026.13l.29-.13h-.316.357l-.352-.06-.005.06h.357l-.352-.06-.032.185.1.156c.015.026.225.372.426.876.202.503.392 1.165.39 1.803 0 .473-.097.928-.35 1.335-.254.408-.67.79-1.38 1.1l.01-.005-.01.004c-2.69 1.158-4.415 1.3-5.57 1.304-.43 0-.784-.022-1.102-.022v.492l.353.343.008-.008.812-.836h-1.164c-.304 0-.596.02-.93.02-.476 0-1.042-.036-1.843-.217-.8-.18-1.83-.51-3.2-1.102-.71-.308-1.126-.69-1.38-1.098-.25-.41-.35-.862-.35-1.336-.002-.658.2-1.34.41-1.85.104-.254.21-.465.287-.612l.09-.166.025-.04.005-.01-.417-.262.382.31c.146-.18.352-.333.52-.43.084-.05.157-.086.208-.11l.057-.025.012-.005-.012-.028.01.03-.01-.03.01.03-.173-.46-.31.38c.008.008 1.12.912 2.54 1.827.712.457 1.5.917 2.274 1.273.777.35 1.535.606 2.243.62h-.01.04c.712-.004 1.46-.257 2.215-.607 1.13-.528 2.273-1.3 3.143-1.938.87-.64 1.462-1.152 1.47-1.157l-.32-.376-.178.458.18-.458-.322-.374-.044.038c-.224.188-1.276 1.064-2.528 1.88-.626.41-1.302.804-1.94 1.09-.636.288-1.238.458-1.67.455h-.02.01-.01c-.465 0-1.138-.203-1.846-.53-1.067-.487-2.23-1.232-3.112-1.854-.442-.313-.816-.592-1.08-.793l-.306-.237-.106-.085-.218-.178-.265.1c-.02.006-.195.073-.43.21-.234.14-.532.348-.786.66l-.02.023-.016.025c-.01.017-.247.396-.485.978-.238.584-.482 1.37-.484 2.224 0 .61.13 1.26.5 1.854.366.597.965 1.116 1.824 1.485 1.414.61 2.502.96 3.374 1.157.87.198 1.53.24 2.06.24.37 0 .67-.02.93-.018V43.6l-.353-.342-.007.01-.812.834h1.165c.27 0 .64.02 1.103.02 1.252.003 3.162-.173 5.958-1.385.86-.368 1.46-.888 1.826-1.483.37-.595.5-1.245.5-1.854-.002-.853-.248-1.64-.484-2.224-.238-.583-.474-.96-.484-.977l-.417.26.485.08.01-.103c-.002-.177-.07-.307-.13-.397-.114-.158-.237-.25-.362-.336-.187-.127-.387-.226-.547-.3-.16-.075-.276-.12-.282-.123l-.275-.106-.224.193.32.377z"/></svg>