<svg xmlns="http://www.w3.org/2000/svg" width="50" height="50" viewBox="0 0 50 50"><g fill="#000100"><path d="M31.32 19.496c-.647-.16-1.3.246-1.466.903-.16.654.23 1.325.872 1.48.646.16 1.302-.247 1.462-.904.165-.658-.23-1.322-.867-1.48z"/><path d="M43.58 27.605l-.263-.876-.27-.855-.324-.792-.303-.793-.312-.77-.28-.76-.238-.793-.188-.794.042-.364.168-.344.172-.366.046-.343-.148-.698-.176-.69-.188-.706-.22-.68-.226-.687-.24-.676-.26-.687-.273-.67-.302-.634-.323-.647-.313-.637.977-.604-.344-.595-.385-.555-.385-.558-.388-.534-.364-.446-.385-.427-.386-.39-.4-.384-.4-.367.896-.34-.46-.312-.447-.327-.472-.28-.467-.27-.487-.263-.494-.24-.51-.23-.542-.214-.53-.21-.538-.2-.643-.205-.637-.168-.646-.175-.633-.15-.667-.132-.66-.105-.665-.082-.667-.064-.653-.043-.668-.02-.66-.02-.688.02-.668.02-.658.04-.666.065-.654.082-.69.106-.68.133-.684.13-.69.14-.674.2-.69.188-.685.22-.66.23-.647.257-.634.306-.65.288-.61.325-.607.365-.572.364-.553.406-.543.43-.488.428-.468.45-.448.466-.428.49-.407.54-.41.51-.365.556-.342.573-.333.583-.3.59-.263.607-.253.597-.216.625-.188.612-.158.65-.124.615-.188 1.322-.073 1.3.03 1.302.128 1.282.206 1.286.344 1.258.428 1.222 3.214 5.216c5.45 5.616 5.222 11.223 5.222 11.223l-.136 1.11.1 2.996 18.674.403.08-.347V45.13l.04-1.09.083-2.44.124-1.24.063-.29.115-.24.124-.21.167-.18.218-.12.253-.088.282-.09.3-.043.385-.043.368-.022h.088l.363.043.342.02.364.043.334.03.385.044.367.042-.916.018.406.046.41.018.444.024.26-.024.272-.063.28-.104.263-.136.25-.163.22-.2.183-.208.158-.22.104-.47-.054-.51-.1-.508v-.492l.074-.218.104-.188.104-.198.127-.17.133-.175.106-.188.08-.194.02-.21-.02-.24-.042-.21-.06-.216-.107-.21-.153-.2-.167-.184-.2-.148-.228-.155.248-.125.24-.15.243-.177.166-.164.145-.2.09-.206.047-.197-.046-.206-.236-.754-.148-.686-.09-.637v-.624l.36-.147.324-.146.28-.158.23-.168.178-.188.106-.197.062-.21-.023-.212zM25.295 23.01c-.085.083-2.253-.842-2.253-.842l-.986.4s-.806 2.162-.928 2.162h-1.765c-.12 0-.99-2.156-.99-2.156l-.978-.4s-2.135.974-2.217.892l-1.253-1.225c-.078-.08.864-2.207.864-2.207l-.404-.965s-2.21-.785-2.21-.907v-1.728c0-.112 2.206-.964 2.206-.964l.403-.962s-.992-2.085-.906-2.17l1.245-1.223c.082-.082 2.26.843 2.26.843l.98-.397s.806-2.167.927-2.167h1.765c.118 0 .985 2.16.985 2.16l.982.397s2.132-.974 2.22-.888l1.246 1.22c.082.08-.86 2.212-.86 2.212l.406.962s2.21.785 2.21.906v1.726c0 .118-2.204.967-2.204.967l-.406.96s.998 2.087.91 2.175l-1.25 1.22zm9.272-1.03c-.014.054-1.11.206-1.11.206l-.296.413s.206 1.096.154 1.127l-.703.44c-.05.03-.928-.65-.928-.65l-.494.074s-.618.94-.67.923l-.8-.197c-.055-.012-.194-1.134-.194-1.134l-.397-.297s-1.083.225-1.11.173l-.425-.72c-.03-.048.646-.948.646-.948l-.065-.498s-.916-.622-.9-.676l.203-.82c.012-.054 1.116-.208 1.116-.208l.29-.413s-.206-1.098-.157-1.125l.707-.44c.048-.027.928.65.928.65l.49-.077s.616-.935.677-.92l.797.2c.055.01.196 1.13.196 1.13l.397.297s1.08-.22 1.11-.173l.42.718c.032.05-.644.95-.644.95l.068.5s.913.62.898.676l-.204.82z"/><path d="M20.214 14.344c-1.423 0-2.58 1.128-2.58 2.517 0 1.393 1.157 2.523 2.58 2.523 1.416 0 2.574-1.13 2.574-2.522 0-1.388-1.158-2.516-2.574-2.516z"/></g></svg>