<svg xmlns="http://www.w3.org/2000/svg" width="50" height="50" viewBox="0 0 50 50"><path d="M25 41.33c-2.838 0-5.533-.64-7.944-1.782l-2.12 5.965H36.46l-2.416-6.53c-2.68 1.492-5.763 2.346-9.045 2.346z"/><path d="M25 39.236c3.075 0 5.96-.802 8.466-2.203 5.313-2.97 8.91-8.65 8.91-15.17 0-9.597-7.78-17.376-17.376-17.376S7.626 12.267 7.626 21.862c0 6.962 4.095 12.965 10.01 15.737 2.235 1.048 4.73 1.636 7.363 1.636zM32.225 8.72c4.476 2.675 7.475 7.564 7.475 13.16 0 5.593-2.997 10.483-7.474 13.16 3.537-2.905 5.85-7.716 5.85-13.16 0-5.448-2.314-10.258-5.85-13.16zm-8.788 12.488l1.413.866-1.546.593-.387 1.61-1.044-1.287-1.65.13.902-1.39-.633-1.53 1.6.428 1.26-1.076.086 1.656zm-7.33 2.68l-1.982-.79-1.773 1.184.138-2.128-1.67-1.32 2.064-.527.74-2 1.137 1.805 2.135.084-1.366 1.64.577 2.053zm2.02-9.21l-2.452-.99 2.274-1.34.184-2.634 1.98 1.747 2.56-.64-1.052 2.423 1.4 2.237-2.627-.25-1.695 2.024-.573-2.577z"/></svg>